<mxfile host="app.diagrams.net" modified="2024-04-07T16:26:37.414Z" agent="Mozilla/5.0 (X11; Linux x86_64) AppleWebKit/537.36 (KHTML, like Gecko) Chrome/123.0.0.0 Safari/537.36" version="23.1.1" etag="h7ig_E3RtS6RQOAaq7Vb" type="github">
  <diagram name="Page-1" id="0CXxE5dgXwet_Ul2b8DN">
    <mxGraphModel>
      <root>
        <mxCell id="0" />
        <mxCell id="1" parent="0" />
      </root>
    </mxGraphModel>
  </diagram>
</mxfile>
